<svg xmlns="http://www.w3.org/2000/svg" viewBox="2 2 28 23">
  <title>IELTS Studio pixel brain mascot</title>
  <!-- Top-left brand exception: original pixel body, folds, eyes and feet.
       The original right arm stays raised; its bulb lives in the page's floating overlay. -->
  <g fill="#7c4f5d" shape-rendering="crispEdges">
    <rect x="12.55" y="20" width="1.7" height="3.4"/>
    <rect x="11.85" y="22.8" width="3.1" height="1.6"/>
    <rect x="17.75" y="20" width="1.7" height="3.4"/>
    <rect x="17.05" y="22.8" width="3.1" height="1.6"/>
    <rect x="2.6" y="18.6" width="2.7" height="2.7"/>
    <rect x="24.8" y="3.6" width="2.8" height="2.8"/>
  </g>
  <g fill="none" stroke="#7c4f5d" stroke-width="1.7" stroke-linecap="round" stroke-linejoin="round">
    <path d="M7.5,12.5 Q4.6,15.2 4,19.4"/>
    <path d="M24,13 C27.2,11.2 27.6,6.5 26,5.2"/>
  </g>
  <path d="M10,6 H22 V8 H24 V10 H26 V16 H24 V18 H22 V20 H10 V18 H8 V16 H6 V10 H8 V8 H10 Z" fill="#f6bcca" stroke="#c46d87" stroke-width="1.4" stroke-linejoin="miter" shape-rendering="crispEdges"/>
  <path d="M16,8 V18 M10.5,10 H13.5 M18.5,10 H21.5 M10,16 H13 M19,16 H22" fill="none" stroke="#b15775" stroke-width="1.2" opacity="0.85"/>
  <g fill="#3a2530" shape-rendering="crispEdges">
    <rect x="12" y="12.4" width="2" height="2"/>
    <rect x="18" y="12.4" width="2" height="2"/>
  </g>
</svg>
